<svg xmlns="http://www.w3.org/2000/svg" viewBox="0 0 1200 600" fill="none">
  <rect width="1200" height="600" fill="#0b1a2e"/>
  <!-- Pixel grid ground -->
  <g opacity="0.3">
    <rect x="0" y="400" width="1200" height="200" fill="#0d2847"/>
    <!-- Isometric grid lines -->
    <line x1="0" y1="400" x2="600" y2="600" stroke="#1a4a7a" stroke-width="1"/>
    <line x1="200" y1="400" x2="800" y2="600" stroke="#1a4a7a" stroke-width="1"/>
    <line x1="400" y1="400" x2="1000" y2="600" stroke="#1a4a7a" stroke-width="1"/>
    <line x1="600" y1="400" x2="1200" y2="600" stroke="#1a4a7a" stroke-width="1"/>
    <line x1="800" y1="400" x2="1200" y2="560" stroke="#1a4a7a" stroke-width="1"/>
    <line x1="1000" y1="400" x2="1200" y2="480" stroke="#1a4a7a" stroke-width="1"/>
    <line x1="600" y1="400" x2="0" y2="600" stroke="#1a4a7a" stroke-width="1"/>
    <line x1="800" y1="400" x2="200" y2="600" stroke="#1a4a7a" stroke-width="1"/>
    <line x1="1000" y1="400" x2="400" y2="600" stroke="#1a4a7a" stroke-width="1"/>
    <line x1="1200" y1="400" x2="600" y2="600" stroke="#1a4a7a" stroke-width="1"/>
    <line x1="0" y1="440" x2="1200" y2="440" stroke="#1a4a7a" stroke-width="0.5"/>
    <line x1="0" y1="480" x2="1200" y2="480" stroke="#1a4a7a" stroke-width="0.5"/>
    <line x1="0" y1="520" x2="1200" y2="520" stroke="#1a4a7a" stroke-width="0.5"/>
    <line x1="0" y1="560" x2="1200" y2="560" stroke="#1a4a7a" stroke-width="0.5"/>
  </g>
  <!-- Stars -->
  <g fill="#ffffff" opacity="0.5">
    <rect x="100" y="50" width="2" height="2"/>
    <rect x="300" y="120" width="2" height="2"/>
    <rect x="500" y="30" width="3" height="3"/>
    <rect x="700" y="90" width="2" height="2"/>
    <rect x="900" y="60" width="2" height="2"/>
    <rect x="1100" y="140" width="2" height="2"/>
    <rect x="150" y="200" width="2" height="2"/>
    <rect x="450" y="180" width="3" height="3"/>
    <rect x="750" y="220" width="2" height="2"/>
    <rect x="1050" y="250" width="2" height="2"/>
    <rect x="250" y="300" width="2" height="2"/>
    <rect x="550" y="280" width="2" height="2"/>
    <rect x="850" y="310" width="3" height="3"/>
    <rect x="50" y="340" width="2" height="2"/>
    <rect x="650" y="350" width="2" height="2"/>
    <rect x="950" y="370" width="2" height="2"/>
  </g>
  <!-- Pixel buildings silhouette -->
  <g fill="#091a30" opacity="0.6">
    <rect x="80" y="320" width="40" height="80"/>
    <rect x="70" y="340" width="60" height="60"/>
    <rect x="200" y="280" width="30" height="120"/>
    <rect x="190" y="300" width="50" height="100"/>
    <rect x="350" y="300" width="60" height="100"/>
    <rect x="340" y="330" width="80" height="70"/>
    <rect x="500" y="260" width="40" height="140"/>
    <rect x="490" y="280" width="60" height="120"/>
    <rect x="680" y="310" width="50" height="90"/>
    <rect x="670" y="340" width="70" height="60"/>
    <rect x="820" y="270" width="35" height="130"/>
    <rect x="810" y="290" width="55" height="110"/>
    <rect x="950" y="330" width="45" height="70"/>
    <rect x="940" y="350" width="65" height="50"/>
    <rect x="1080" y="290" width="40" height="110"/>
    <rect x="1070" y="310" width="60" height="90"/>
  </g>
  <!-- Moon -->
  <circle cx="950" cy="100" r="40" fill="#1a3a5c" opacity="0.4"/>
  <circle cx="960" cy="95" r="35" fill="#0b1a2e"/>
</svg>
